<svg width="34" height="23" viewBox="0 0 34 23" fill="none" xmlns="http://www.w3.org/2000/svg">
<path d="M29.0776 17.7297L29.3115 17.9474L26.8137 20.6316C25.9309 21.5804 24.1908 22.3782 22.5085 21.466L22.2601 21.3312L22.0165 21.4746C21.077 22.0277 19.8213 22.2677 18.5796 21.6055L18.3324 21.4737L18.0908 21.6157C17.5072 21.959 16.8082 22.181 16.0761 22.1468C15.3529 22.1131 14.5623 21.8285 13.7798 21.1004L10.1294 17.7036L9.9774 17.5622L9.76991 17.57L4.46144 17.7708C4.46138 17.7708 4.46132 17.7708 4.46126 17.7708C3.80304 17.7944 2.94823 17.5666 2.34045 17.001C1.87988 16.5724 1.53505 15.9462 1.50156 15.0165L1.28966 9.13331C1.28215 8.53908 1.45344 7.80885 1.87975 7.22772C2.29313 6.6642 2.96534 6.21185 4.04278 6.16809L5.42417 6.12822L5.63327 6.12218L5.77578 5.96904L9.41917 2.0536L17.9276 1.74759L18.0114 1.74458L18.0896 1.7144C19.5955 1.13347 21.4511 1.14736 23.2231 2.79627L25.8567 5.24685L26.0089 5.38851L26.2167 5.38043L29.5568 5.25049C30.1509 5.24315 30.8808 5.41451 31.4618 5.84069C32.0256 6.25433 32.4782 6.92707 32.5216 8.00549C32.5216 8.00583 32.5216 8.00617 32.5216 8.00651L32.7335 13.8877C32.741 14.4811 32.5678 15.2141 32.1399 15.7971C31.7252 16.3621 31.0537 16.8133 29.9838 16.8528L29.4087 16.8638L28.1722 16.8873L29.0776 17.7297ZM17.6604 19.7029L18.2659 19.0522L18.9167 19.6577C19.4199 20.126 19.9553 20.2951 20.4709 20.2084C20.9565 20.1268 21.3343 19.8325 21.5863 19.5617L22.1918 18.911L22.8426 19.5165C23.3458 19.9848 23.8812 20.1539 24.3968 20.0672C24.8824 19.9856 25.2602 19.6913 25.5122 19.4205L26.4583 18.4037L26.7989 18.0377L26.4329 17.6971L19.3151 11.0739L18.9491 10.7333L18.6085 11.0993C18.1018 11.6438 17.2874 12.1533 16.3646 12.2934C15.4645 12.4301 14.4319 12.2214 13.4263 11.2857C12.4207 10.3499 12.1383 9.33507 12.2099 8.42742C12.2833 7.4969 12.733 6.64797 13.2396 6.10352L14.744 4.48686L15.5662 3.60319L14.3599 3.64658L10.4341 3.78777L10.2271 3.79522L10.086 3.94684L6.44184 7.86311L4.10794 7.95608C4.10761 7.95609 4.10729 7.9561 4.10696 7.95611C4.10341 7.95624 4.09959 7.95636 4.09552 7.95649C3.99048 7.95993 3.71574 7.96893 3.47547 8.14011C3.18516 8.34695 3.06736 8.68527 3.06841 9.07662L3.06843 9.08536L3.06876 9.09411L3.28958 14.9523C3.28959 14.9525 3.2896 14.9527 3.2896 14.9529C3.28974 14.9565 3.28986 14.9605 3.29 14.9647C3.29345 15.0697 3.30245 15.3445 3.47365 15.5847C3.68047 15.875 4.01878 15.9928 4.41013 15.9918L4.41846 15.9918L4.42678 15.9915L10.6583 15.7674L14.9908 19.7989C15.4941 20.2672 16.0294 20.4363 16.545 20.3496C17.0306 20.268 17.4084 19.9737 17.6604 19.7029ZM26.2102 15.0615L26.3624 15.2032L26.5702 15.1951L29.9152 15.065C29.9154 15.065 29.9157 15.065 29.9159 15.065C29.9195 15.0648 29.9234 15.0647 29.9276 15.0646C30.0327 15.0611 30.3074 15.0521 30.5477 14.8809C30.838 14.6741 30.9558 14.3358 30.9547 13.9444L30.9547 13.9357L30.9544 13.9269L30.7336 8.06877C30.7334 8.06495 30.7333 8.06081 30.7331 8.05636C30.7297 7.95132 30.7207 7.67659 30.5495 7.43631C30.3427 7.14602 30.0044 7.02821 29.613 7.02924L29.6047 7.02926L29.5964 7.02956L25.3278 7.18307L22.0121 4.09772C20.9566 3.11562 19.9049 2.98722 19.0399 3.22796C18.2182 3.45665 17.6258 3.99975 17.3795 4.26434L14.5412 7.31464C14.2892 7.58547 14.0228 7.98341 13.9763 8.47365C13.9269 8.99412 14.1341 9.51595 14.6373 9.98423C15.1406 10.4525 15.6759 10.6216 16.1915 10.5349C16.6771 10.4533 17.0549 10.159 17.3069 9.8882L18.8585 8.22071L26.2102 15.0615Z" fill="#E5E5E5" stroke="#4CA308"/>
</svg>
