<svg width="50" height="50" viewBox="0 0 50 50" fill="none" xmlns="http://www.w3.org/2000/svg">
<path d="M24.75 4.625C13.3774 4.625 4.125 12.0273 4.125 21.125C4.125 27.1228 8.03963 32.5018 14.4375 35.4264V45.875L25.4513 37.6147C36.5001 37.3198 45.375 30.035 45.375 21.125C45.375 12.0273 36.1226 4.625 24.75 4.625ZM24.75 33.5H24.0632L18.5625 37.625V32.6399L17.2404 32.1305C11.6944 29.9958 8.25 25.778 8.25 21.125C8.25 14.3002 15.6523 8.75 24.75 8.75C33.8477 8.75 41.25 14.3002 41.25 21.125C41.25 27.9498 33.8477 33.5 24.75 33.5Z" fill="#E5E5E5"/>
</svg>
