<svg width="28" height="28" viewBox="0 0 28 28" fill="none" xmlns="http://www.w3.org/2000/svg">
<path fill-rule="evenodd" clip-rule="evenodd" d="M14.0008 18.455L19.8267 24.5365C20.4112 25.1513 20.7914 25.1576 21.3866 24.5365L22.5555 23.3161C23.1281 22.7185 23.1669 22.3262 22.5555 21.6879L16.3875 15.2502L22.556 8.81259C23.1337 8.20754 23.145 7.7992 22.556 7.18382L21.3871 5.96396C20.7808 5.33081 20.4061 5.36006 19.8273 5.96396L14.0008 12.0455L8.17482 5.96454C7.596 5.36063 7.22136 5.33138 6.61497 5.96454L5.44607 7.18439C4.85656 7.79977 4.86725 8.20811 5.44607 8.81316L11.614 15.2502L5.44607 21.6879C4.83462 22.3262 4.86725 22.7185 5.44607 23.3161L6.61441 24.5365C7.20449 25.1576 7.58475 25.1513 8.17426 24.5365L14.0008 18.455Z" fill="#D30303" stroke="#E5E5E5"/>
</svg>
