<svg width="40" height="43" viewBox="0 0 40 43" fill="none" xmlns="http://www.w3.org/2000/svg">
<path fill-rule="evenodd" clip-rule="evenodd" d="M20.0023 27.91L31.6542 40.0731C32.8231 41.3027 33.5836 41.3153 34.7739 40.0731L37.1117 37.6322C38.257 36.437 38.3346 35.6524 37.1117 34.3758L24.7758 21.5005L37.1128 8.62518C38.2682 7.41507 38.2907 6.59839 37.1128 5.36764L34.775 2.92793C33.5622 1.66162 32.813 1.72011 31.6553 2.92793L20.0023 15.0909L8.35038 2.92907C7.19273 1.72126 6.44346 1.66276 5.23068 2.92907L2.89288 5.36879C1.71385 6.59954 1.73522 7.41622 2.89288 8.62633L15.2288 21.5005L2.89288 34.3758C1.66997 35.6524 1.73522 36.437 2.89288 37.6322L5.22956 40.0731C6.40971 41.3153 7.17023 41.3027 8.34926 40.0731L20.0023 27.91Z" fill="#D30303" stroke="#E5E5E5" stroke-width="3"/>
</svg>
