<svg width="83" height="83" viewBox="0 0 83 83" fill="none" xmlns="http://www.w3.org/2000/svg">
<path d="M65.496 53.0934L66.3298 53.8693L60.9937 59.6038C59.1364 61.5998 55.4158 63.3435 51.779 61.3715L51.5305 61.2367L51.287 61.3801C49.2985 62.5508 46.5987 63.0786 43.9242 61.6522L43.6769 61.5203L43.4354 61.6624C42.2021 62.3878 40.7091 62.8668 39.1291 62.7931C37.5581 62.7198 35.866 62.0991 34.2192 60.5668L26.9185 53.7733L26.7665 53.6318L26.559 53.6397L15.9411 54.0412C15.9408 54.0412 15.9405 54.0412 15.9402 54.0412C14.5166 54.0922 12.6701 53.6052 11.3405 52.368C10.3207 51.4191 9.57536 50.0407 9.5037 48.0511L9.0797 36.279C9.06233 35.0021 9.42681 33.4272 10.3566 32.1597C11.2734 30.9098 12.7595 29.9295 15.0685 29.8365C15.0694 29.8364 15.0703 29.8364 15.0712 29.8364L17.8342 29.7566L18.0433 29.7506L18.1858 29.5975L25.6136 21.615L42.8376 20.9955L42.9213 20.9925L42.9995 20.9623C46.1628 19.7419 50.0831 19.7799 53.787 23.2265L59.0542 28.1276L59.2064 28.2693L59.4142 28.2612L66.1009 28.0011C67.3777 27.984 68.9523 28.3486 70.2195 29.2782C71.4698 30.1954 72.4504 31.682 72.5431 33.9921C72.5431 33.9924 72.5431 33.9927 72.5431 33.993L72.9671 45.7631C72.9844 47.0391 72.6157 48.6194 71.6832 49.8899C70.7638 51.1426 69.2785 52.1218 66.9816 52.2055L65.8271 52.2274L64.5907 52.2509L65.496 53.0934ZM41.955 57.0651L43.5067 55.3977L45.1743 56.9494C46.0893 57.8009 47.009 58.0667 47.8591 57.9238C48.6793 57.7859 49.3419 57.2823 49.8068 56.7828L51.3584 55.1153L53.026 56.667C53.9411 57.5185 54.8607 57.7843 55.7109 57.6414C56.5311 57.5035 57.1937 57 57.6585 56.5004L59.5508 54.4668L59.8914 54.1008L59.5253 53.7602L45.2899 40.5138L44.9238 40.1732L44.5832 40.5392C43.5042 41.6988 41.7768 42.7817 39.8045 43.0812C37.8549 43.3773 35.6364 42.9139 33.5122 40.9374C31.3881 38.9608 30.7665 36.7814 30.9216 34.8155C31.0785 32.8268 32.0344 31.026 33.1135 29.8664L36.1221 26.6331L36.9444 25.7494L35.7381 25.7928L27.8864 26.0752L27.6794 26.0827L27.5383 26.2343L20.1096 34.2176L15.2341 34.4118L15.2322 34.4119L15.2207 34.4123C15.0136 34.4196 14.5965 34.4344 14.2413 34.6874C13.8384 34.9745 13.6352 35.4657 13.6371 36.1519L13.6371 36.1606L13.6374 36.1694L14.0791 47.8866L14.0791 47.8874L14.0796 47.9C14.0869 48.1071 14.1017 48.5241 14.3547 48.8793C14.6418 49.2822 15.133 49.4854 15.8192 49.4836L15.8275 49.4836L15.8358 49.4833L28.5058 49.0276L37.3225 57.2318C38.2375 58.0832 39.1572 58.3491 40.0074 58.2062C40.8276 58.0682 41.4901 57.5647 41.955 57.0651ZM59.7612 47.757L59.9134 47.8987L60.1212 47.8906L66.8127 47.6303L66.8141 47.6302L66.8261 47.6298C67.0332 47.6225 67.4503 47.6077 67.8055 47.3547C68.2084 47.0676 68.4115 46.5764 68.4097 45.8902L68.4097 45.8815L68.4094 45.8727L67.9677 34.1555L67.9676 34.1547L67.9672 34.1421C67.9599 33.935 67.9451 33.5179 67.692 33.1628C67.405 32.7599 66.9137 32.5567 66.2276 32.5585L66.2192 32.5585L66.2109 32.5588L57.4669 32.8733L50.6838 26.5615C48.698 24.7136 46.7736 24.5036 45.2141 24.9376C43.6979 25.3596 42.5892 26.3708 42.1254 26.8693L36.4487 32.9699C35.9838 33.4695 35.5292 34.1666 35.4506 34.9945C35.3691 35.8528 35.7004 36.7509 36.6155 37.6024C37.5305 38.4539 38.4502 38.7198 39.3004 38.5768C40.1206 38.4389 40.7831 37.9354 41.248 37.4358L44.6919 33.7348L59.7612 47.757Z" fill="#E5E5E5" stroke="#4CA308"/>
</svg>
