<svg width="83" height="83" viewBox="0 0 83 83" fill="none" xmlns="http://www.w3.org/2000/svg">
<path d="M41.5 0.25C18.7548 0.25 0.25 15.0546 0.25 33.25C0.25 45.2455 8.07925 56.0035 20.875 61.8528V82.75L42.9025 66.2294C65.0001 65.6395 82.75 51.07 82.75 33.25C82.75 15.0546 64.2453 0.25 41.5 0.25ZM41.5 58H40.1264L29.125 66.25V56.2799L26.4809 55.261C15.3888 50.9916 8.5 42.556 8.5 33.25C8.5 19.6004 23.3046 8.5 41.5 8.5C59.6954 8.5 74.5 19.6004 74.5 33.25C74.5 46.8996 59.6954 58 41.5 58Z" fill="#E5E5E5"/>
</svg>
