<svg width="25" height="23" viewBox="0 0 25 23" fill="none" xmlns="http://www.w3.org/2000/svg">
<path d="M12.7195 0.608887C6.18519 0.608887 0.869141 4.52112 0.869141 9.32937C0.869141 12.4993 3.11833 15.3421 6.7943 16.8879V22.4101L13.1224 18.0444C19.4706 17.8885 24.5698 14.0384 24.5698 9.32937C24.5698 4.52112 19.2537 0.608887 12.7195 0.608887ZM12.7195 15.8697H12.3248L9.16436 18.0499V15.4152L8.40475 15.1459C5.2182 14.0177 3.2392 11.7886 3.2392 9.32937C3.2392 5.72236 7.49228 2.78901 12.7195 2.78901C17.9466 2.78901 22.1997 5.72236 22.1997 9.32937C22.1997 12.9364 17.9466 15.8697 12.7195 15.8697Z" fill="#E5E5E5"/>
</svg>
