<svg width="22" height="22" viewBox="0 0 22 22" fill="none" xmlns="http://www.w3.org/2000/svg">
<path d="M15.7607 13.918C16.9804 12.2084 17.5267 10.0889 17.2903 7.98342C17.0539 5.87793 16.0522 3.94177 14.4857 2.56229C12.9191 1.18281 10.9032 0.461746 8.84125 0.543351C6.7793 0.624956 4.82339 1.50322 3.36482 3.00242C1.90625 4.50163 1.05258 6.51122 0.974603 8.62914C0.896628 10.7471 1.6001 12.8171 2.94427 14.4252C4.28844 16.0333 6.17419 17.0607 8.22425 17.3021C10.2743 17.5434 12.3375 16.9807 14.001 15.7267H13.9997C14.0375 15.7785 14.0778 15.8276 14.1232 15.8755L18.9728 20.8567C19.209 21.0995 19.5295 21.2359 19.8636 21.2361C20.1977 21.2362 20.5183 21.1 20.7546 20.8574C20.991 20.6148 21.1238 20.2857 21.124 19.9424C21.1241 19.5992 20.9914 19.27 20.7552 19.0273L15.9056 14.0461C15.8606 13.9992 15.8121 13.956 15.7607 13.9167V13.918ZM16.0857 8.94453C16.0857 9.87902 15.9065 10.8044 15.5583 11.6677C15.2102 12.5311 14.6999 13.3155 14.0565 13.9763C13.4132 14.6371 12.6494 15.1612 11.8089 15.5189C10.9683 15.8765 10.0674 16.0605 9.15763 16.0605C8.24782 16.0605 7.34691 15.8765 6.50636 15.5189C5.6658 15.1612 4.90206 14.6371 4.25872 13.9763C3.61539 13.3155 3.10507 12.5311 2.7569 11.6677C2.40873 10.8044 2.22953 9.87902 2.22953 8.94453C2.22953 7.05725 2.95946 5.24727 4.25873 3.91276C5.55799 2.57825 7.32018 1.82853 9.15763 1.82853C10.9951 1.82853 12.7573 2.57825 14.0565 3.91276C15.3558 5.24727 16.0857 7.05725 16.0857 8.94453Z" fill="#E5E5E5"/>
</svg>
