<svg width="111" height="100" viewBox="0 0 111 100" fill="none" xmlns="http://www.w3.org/2000/svg">
<path d="M68.355 10.1542L67.909 9.66683H67.2484H43.7517H43.091L42.6451 10.1542L32.9498 20.7502H11.1667H9.66671V22.2502V88.7502V90.2502H11.1667H99.8334H101.333V88.7502V22.2502V20.7502H99.8334H78.0503L68.355 10.1542ZM28.7338 12.6668H29.3945L29.8404 12.1794L39.5357 1.5835H71.4644L81.1596 12.1794L81.6056 12.6668H82.2663H99.8334C105.101 12.6668 109.417 16.9828 109.417 22.2502V88.7502C109.417 94.0176 105.101 98.3335 99.8334 98.3335H11.1667C5.8993 98.3335 1.58337 94.0176 1.58337 88.7502V22.2502C1.58337 16.9828 5.8993 12.6668 11.1667 12.6668H28.7338ZM73.625 55.5002C73.625 45.528 65.4722 37.3752 55.5 37.3752C45.5279 37.3752 37.375 45.528 37.375 55.5002C37.375 65.4723 45.5279 73.6252 55.5 73.6252C65.4722 73.6252 73.625 65.4723 73.625 55.5002ZM29.2917 55.5002C29.2917 41.0336 41.0335 29.2918 55.5 29.2918C69.9666 29.2918 81.7084 41.0336 81.7084 55.5002C81.7084 69.9667 69.9666 81.7085 55.5 81.7085C41.0335 81.7085 29.2917 69.9667 29.2917 55.5002Z" fill="#E5E5E5" stroke="#313340" stroke-width="3"/>
</svg>
