<svg width="22" height="20" viewBox="0 0 22 20" fill="none" xmlns="http://www.w3.org/2000/svg">
<path d="M9.9469 1.84185C10.2624 1.10675 11.4564 1.10675 11.7728 1.84185L13.8137 6.83598C13.9567 7.16695 14.3205 7.3873 14.7267 7.3873H19.7421C20.6689 7.3873 21.0731 8.40633 20.3445 8.9054L16.7755 11.7421C16.6156 11.8507 16.4987 12.0012 16.4417 12.1721C16.3847 12.343 16.3904 12.5254 16.458 12.6932L17.7614 17.5733C18.0789 18.3571 17.0515 19.0304 16.2746 18.5479L11.4268 15.8305C11.2608 15.7274 11.0628 15.6721 10.8599 15.6721C10.6569 15.6721 10.459 15.7274 10.293 15.8305L5.44513 18.5479C4.66921 19.0304 3.64088 18.3563 3.95835 17.5733L5.26175 12.6932C5.32936 12.5254 5.33506 12.343 5.27803 12.1721C5.22099 12.0012 5.10416 11.8507 4.94428 11.7421L1.37521 8.9054C0.645622 8.40633 1.05183 7.3873 1.97663 7.3873H6.99206C7.18953 7.38788 7.38255 7.33548 7.54558 7.23704C7.7086 7.13859 7.83395 6.99873 7.90503 6.83598L9.94591 1.84185H9.9469Z" stroke="#313340" stroke-linecap="round" stroke-linejoin="round"/>
</svg>
