<svg width="180" height="188" viewBox="0 0 263 188" fill="none" xmlns="http://www.w3.org/2000/svg">
<path d="M24.6889 157.356C26.5289 157.356 28.0889 157.196 29.3689 156.876C30.6489 156.556 31.7489 156.116 32.6689 155.556L34.3489 161.556C33.3889 162.116 32.0289 162.616 30.2689 163.056C28.5089 163.496 26.3689 163.716 23.8489 163.716C21.0089 163.716 18.3889 163.276 15.9889 162.396C13.5889 161.476 11.5089 160.176 9.74892 158.496C8.02892 156.776 6.68892 154.716 5.72892 152.316C4.76892 149.876 4.28892 147.136 4.28892 144.096C4.28892 141.136 4.74892 138.456 5.66892 136.056C6.62892 133.656 7.94892 131.616 9.62892 129.936C11.3489 128.216 13.4289 126.896 15.8689 125.976C18.3089 125.056 21.0289 124.596 24.0289 124.596C26.5889 124.596 28.6889 124.836 30.3289 125.316C32.0089 125.796 33.3689 126.316 34.4089 126.876L32.5489 132.936C31.5089 132.376 30.3489 131.916 29.0689 131.556C27.8289 131.156 26.4289 130.956 24.8689 130.956C23.2289 130.956 21.6889 131.196 20.2489 131.676C18.8089 132.156 17.5489 132.936 16.4689 134.016C15.3889 135.056 14.5289 136.416 13.8889 138.096C13.2889 139.736 12.9889 141.736 12.9889 144.096C12.9889 146.376 13.2889 148.356 13.8889 150.036C14.4889 151.676 15.3089 153.036 16.3489 154.116C17.4289 155.196 18.6689 156.016 20.0689 156.576C21.5089 157.096 23.0489 157.356 24.6889 157.356ZM40.2477 163.056V125.256H48.4677V140.256H62.8077V125.256H71.0277V163.056H62.8077V146.736H48.4677V163.056H40.2477ZM89.3483 148.296H98.9483L97.2083 143.256C96.6483 141.696 96.1283 140.136 95.6483 138.576C95.1683 136.976 94.7083 135.376 94.2683 133.776H94.1483C93.7083 135.296 93.2283 136.856 92.7083 138.456C92.1883 140.016 91.6483 141.616 91.0883 143.256L89.3483 148.296ZM90.0683 125.256H98.5883L112.568 163.056H103.868L100.928 154.356H87.4883L84.5483 163.056H75.9683L90.0683 125.256ZM117.357 125.256H124.857L137.877 145.176C138.757 146.536 139.557 147.876 140.277 149.196C141.037 150.476 141.577 151.476 141.897 152.196H142.017C141.777 149.596 141.657 147.016 141.657 144.456C141.657 141.856 141.657 139.236 141.657 136.596V125.256H149.277V163.056H141.777L129.657 144.696C129.137 143.896 128.617 143.076 128.097 142.236C127.617 141.356 127.157 140.516 126.717 139.716C126.277 138.916 125.877 138.196 125.517 137.556C125.197 136.876 124.957 136.316 124.797 135.876H124.677C124.877 138.636 124.977 141.296 124.977 143.856C125.017 146.376 125.037 148.956 125.037 151.596V163.056H117.357V125.256ZM175.672 124.596C178.032 124.596 180.132 124.796 181.972 125.196C183.812 125.596 185.472 126.136 186.952 126.816L185.212 132.396C183.812 131.716 182.372 131.216 180.892 130.896C179.412 130.576 177.952 130.416 176.512 130.416C174.872 130.416 173.312 130.676 171.832 131.196C170.392 131.716 169.132 132.536 168.052 133.656C166.972 134.776 166.112 136.216 165.472 137.976C164.832 139.696 164.512 141.776 164.512 144.216C164.512 148.576 165.472 151.936 167.392 154.296C169.352 156.616 172.132 157.776 175.732 157.776C177.812 157.776 179.372 157.576 180.412 157.176V148.356H174.172V142.236H188.272V161.376C186.712 162.056 184.892 162.616 182.812 163.056C180.732 163.496 178.352 163.716 175.672 163.716C172.872 163.716 170.252 163.296 167.812 162.456C165.412 161.616 163.312 160.376 161.512 158.736C159.752 157.056 158.352 155.016 157.312 152.616C156.312 150.176 155.812 147.376 155.812 144.216C155.812 141.056 156.312 138.256 157.312 135.816C158.352 133.336 159.752 131.276 161.512 129.636C163.272 127.996 165.352 126.756 167.752 125.916C170.192 125.036 172.832 124.596 175.672 124.596ZM195.404 125.256H220.004V131.616H203.624V140.256H218.444V146.556H203.624V156.696H220.184V163.056H195.404V125.256ZM226.4 125.256H240.74C242.86 125.256 244.72 125.576 246.32 126.216C247.96 126.816 249.32 127.656 250.4 128.736C251.48 129.776 252.28 131.016 252.8 132.456C253.36 133.856 253.64 135.376 253.64 137.016C253.64 138.536 253.4 139.896 252.92 141.096C252.48 142.256 251.9 143.276 251.18 144.156C250.5 144.996 249.72 145.716 248.84 146.316C248 146.876 247.18 147.336 246.38 147.696L255.62 163.056H246.2L238.94 149.136H234.56V163.056H226.4V125.256ZM234.56 142.836H237.8C239.96 142.836 241.72 142.396 243.08 141.516C244.48 140.636 245.18 139.176 245.18 137.136C245.18 135.336 244.62 133.956 243.5 132.996C242.42 131.996 240.82 131.496 238.7 131.496H234.56V142.836Z" fill="#E5E5E5"/>
<path d="M170.334 99.5431L171.206 100.355L162.733 109.461C159.735 112.683 153.863 115.418 148.247 112.405L147.499 112.004L146.77 112.438C143.595 114.329 139.368 115.172 135.227 112.987L134.483 112.595L133.761 113.025C131.79 114.197 129.435 114.966 126.974 114.873C124.543 114.782 121.905 113.848 119.317 111.439L107.326 100.282L106.864 99.852L106.234 99.8816L88.6413 100.708C88.6406 100.708 88.6398 100.708 88.639 100.708C86.4232 100.807 83.5649 100.067 81.5436 98.1864C80.0092 96.7586 78.8695 94.6605 78.7856 91.5369L78.2613 72.0256C78.2538 70.027 78.8505 67.557 80.3112 65.5746C81.735 63.642 84.0308 62.0947 87.6516 61.9148C87.6543 61.9146 87.6569 61.9145 87.6596 61.9144L92.23 61.7407L92.8491 61.7172L93.2711 61.2636L105.514 48.1069L133.784 46.8314L134.033 46.8201L134.266 46.7285C139.331 44.7328 145.534 44.7338 151.39 50.1822L160.04 58.2318L160.503 58.6623L161.134 58.6319L172.205 58.0999C174.202 58.0566 176.645 58.6098 178.581 60.0238C180.463 61.3982 181.963 63.6499 182.076 67.2731C182.076 67.2741 182.076 67.2751 182.076 67.2761L182.6 86.7816C182.607 88.7776 182.004 91.2567 180.539 93.245C179.11 95.1825 176.817 96.7263 173.22 96.8919L171.313 96.9455L167.653 97.0486L170.334 99.5431ZM132.228 106.463L134.372 104.16L136.614 106.246C138.248 107.767 139.978 108.289 141.63 107.996C143.188 107.72 144.412 106.764 145.239 105.876L147.382 103.573L149.624 105.659C151.258 107.18 152.988 107.702 154.64 107.409C156.198 107.133 157.423 106.177 158.249 105.289L161.414 101.887L162.436 100.789L161.338 99.7675L137.958 78.0119L136.859 76.9901L135.838 78.0882C134.116 79.9388 131.364 81.6771 128.259 82.1768C125.223 82.6654 121.77 81.9887 118.442 78.8924C115.115 75.7961 114.192 72.4002 114.461 69.3371C114.736 66.2041 116.272 63.3348 117.994 61.4842L123.026 56.0759L125.525 53.3903L121.861 53.5556L108.85 54.1426L108.238 54.1703L107.82 54.6193L95.575 67.7785L87.7668 68.161C87.766 68.161 87.7652 68.1611 87.7644 68.1611C87.7533 68.1616 87.7415 68.1621 87.729 68.1626C87.3805 68.1775 86.5172 68.2144 85.7632 68.7556C84.8669 69.399 84.4769 70.4524 84.4688 71.7218L84.4686 71.748L84.4693 71.7742L85.0239 91.2007C85.0239 91.2008 85.0239 91.2008 85.0239 91.2009C85.0242 91.2132 85.0245 91.2264 85.0249 91.2406C85.0332 91.5855 85.0541 92.4593 85.5911 93.2189C86.2393 94.1356 87.3125 94.5059 88.5766 94.4911L88.6016 94.4908L88.6266 94.4897L109.335 93.5554L123.603 106.833C125.238 108.354 126.968 108.876 128.62 108.583C130.178 108.307 131.402 107.351 132.228 106.463ZM160.915 90.7787L161.377 91.2091L162.009 91.1788L173.095 90.6461C173.095 90.646 173.096 90.646 173.097 90.646C173.108 90.6455 173.12 90.645 173.132 90.6444C173.481 90.6295 174.344 90.5927 175.098 90.0515C175.994 89.4081 176.384 88.3547 176.393 87.0853L176.393 87.0591L176.392 87.0329L175.837 67.6063C175.837 67.6056 175.837 67.6048 175.837 67.604C175.837 67.5923 175.837 67.5798 175.836 67.5665C175.828 67.2216 175.807 66.3478 175.27 65.5882C174.622 64.6714 173.549 64.3011 172.285 64.316L172.26 64.3163L172.235 64.3174L158.032 64.9582L147.103 54.7889C143.662 51.5872 140.229 51.2116 137.416 52.0191C134.734 52.7892 132.784 54.58 131.973 55.4521L122.478 65.6565C121.651 66.5445 120.786 67.8343 120.623 69.408C120.449 71.0769 121.094 72.7648 122.729 74.2858C124.363 75.8068 126.093 76.3287 127.745 76.0359C129.303 75.7598 130.528 74.804 131.354 73.916L136.662 68.2112L160.915 90.7787Z" fill="#E5E5E5" stroke="#313340" stroke-width="3"/>
<path d="M48.6389 112.915C48.6389 -8.44549 213.444 -8.91789 213.444 112.915" stroke="#E5E5E5"/>
<path d="M39.2724 95.6253L39.0669 97.1354L41.6828 97.4914C41.9523 97.5281 42.1467 97.494 42.2659 97.3891C42.3783 97.2752 42.4485 97.1152 42.4765 96.9091C42.4981 96.7506 42.5044 96.5859 42.4953 96.4151C42.4863 96.2444 42.461 96.1037 42.4195 95.9931L43.5577 95.9057C43.6028 96.0491 43.6387 96.2599 43.6654 96.538C43.6922 96.8162 43.685 97.1059 43.644 97.4071C43.5502 98.0967 43.3486 98.5699 43.0391 98.8265C42.7218 99.082 42.2896 99.1726 41.7427 99.0982L38.8533 98.705L38.7335 99.5848L37.5921 99.4295L37.7118 98.5496L35.9639 98.3117L36.1775 96.7422L37.9254 96.9801L38.1309 95.47L39.2724 95.6253Z" fill="#E5E5E5"/>
<path d="M44.2661 92.5345L43.9494 94.0987L35.5517 92.3987L35.8684 90.8344L39.1616 91.5011C39.0273 91.2372 38.9307 90.9483 38.8718 90.6344C38.8145 90.3126 38.8208 89.9792 38.8906 89.6342C38.9573 89.3049 39.0662 89.029 39.2174 88.8066C39.3622 88.5747 39.5407 88.3987 39.7528 88.2783C39.9586 88.1486 40.195 88.0699 40.4617 88.0423C40.7207 88.0131 40.9952 88.0279 41.2853 88.0866L45.0137 88.8414L44.697 90.4056L41.2392 89.7056C40.855 89.6279 40.5647 89.6507 40.3683 89.7742C40.1718 89.8977 40.0435 90.1084 39.9832 90.4064C39.9419 90.6102 39.95 90.8322 40.0075 91.0724C40.0587 91.3032 40.1492 91.5215 40.2789 91.7273L44.2661 92.5345Z" fill="#E5E5E5"/>
<path d="M43.945 82.4518L42.9717 86.1292L43.0181 86.1415C43.4589 86.2582 43.8286 86.1905 44.127 85.9385C44.4254 85.6864 44.6391 85.3168 44.768 84.8296C44.8499 84.5202 44.8906 84.2413 44.8901 83.993C44.8917 83.7368 44.8756 83.5008 44.8416 83.285L45.9942 83.2921C46.0395 83.5275 46.0549 83.813 46.0406 84.1485C46.034 84.486 45.9734 84.8714 45.8588 85.3044C45.7483 85.7221 45.5898 86.1022 45.3833 86.4447C45.1711 86.7775 44.9121 87.0524 44.6064 87.2694C44.3028 87.4787 43.9516 87.6175 43.5528 87.6857C43.1541 87.754 42.7073 87.7226 42.2123 87.5916C41.7715 87.4749 41.3906 87.3038 41.0696 87.0782C40.7409 86.8505 40.4807 86.583 40.2889 86.2757C40.0992 85.9607 39.9798 85.6146 39.9306 85.2375C39.8738 84.8583 39.9006 84.4599 40.0111 84.0423C40.2097 83.2921 40.5954 82.757 41.1684 82.437C41.7434 82.1092 42.4408 82.0537 43.2605 82.2707L43.945 82.4518ZM42.4718 83.7501C42.3248 83.7112 42.1766 83.6927 42.0272 83.6945C41.8798 83.6886 41.7456 83.711 41.6246 83.7618C41.4958 83.8105 41.3852 83.8846 41.2926 83.9842C41.2 84.0839 41.1312 84.2188 41.0862 84.3889C41.0043 84.6983 41.0412 84.9811 41.1968 85.2374C41.3524 85.4938 41.603 85.6884 41.9485 85.8212L42.4718 83.7501Z" fill="#E5E5E5"/>
<path d="M47.1032 71.1423C47.5291 71.3051 47.8897 71.5158 48.1849 71.7742C48.48 72.0327 48.7081 72.3211 48.869 72.6396C49.0224 72.9551 49.104 73.2904 49.1139 73.6453C49.1239 74.0003 49.0602 74.3571 48.9231 74.7158C48.7889 75.067 48.6223 75.3459 48.4234 75.5525C48.217 75.7562 47.981 75.9144 47.7153 76.0269L47.6982 76.0718L48.1528 76.3612L47.7414 77.4372L39.7383 74.3777L40.3039 72.8981L43.3976 74.0808C43.2971 73.8283 43.2455 73.5601 43.2426 73.2764C43.2426 72.9852 43.2968 72.6976 43.4054 72.4137C43.6854 71.6814 44.1505 71.204 44.8008 70.9815C45.454 70.7516 46.2214 70.8052 47.1032 71.1423ZM46.5498 72.6908C45.9968 72.4794 45.5369 72.4277 45.1701 72.5359C44.7958 72.6412 44.533 72.8918 44.3816 73.2879C44.3016 73.4971 44.2796 73.7114 44.3157 73.9307C44.3443 74.1472 44.4021 74.3321 44.4891 74.4852L46.9438 75.4237C47.0931 75.3694 47.2336 75.2818 47.3655 75.1609C47.5002 75.0325 47.6004 74.8824 47.6661 74.7106C47.7347 74.5312 47.7667 74.3465 47.7623 74.1564C47.7608 73.9588 47.717 73.7708 47.6311 73.5923C47.548 73.4064 47.4199 73.2375 47.2467 73.0857C47.066 72.931 46.8337 72.7993 46.5498 72.6908Z" fill="#E5E5E5"/>
<path d="M49.8061 65.6579L48.2021 69.1072L48.2456 69.1274C48.6591 69.3197 49.0348 69.318 49.3729 69.1223C49.7109 68.9266 49.9862 68.6002 50.1987 68.1432C50.3337 67.8531 50.4227 67.5857 50.4659 67.3411C50.5124 67.0892 50.5379 66.8541 50.5425 66.6356L51.6759 66.845C51.6791 67.0847 51.6442 67.3685 51.5712 67.6963C51.5054 68.0274 51.3781 68.3961 51.1892 68.8023C51.007 69.194 50.7842 69.5404 50.5207 69.8413C50.2534 70.1317 49.9502 70.3568 49.6111 70.5168C49.2754 70.6695 48.9053 70.7444 48.5008 70.7416C48.0963 70.7387 47.6619 70.6294 47.1976 70.4135C46.7841 70.2212 46.4392 69.9858 46.1629 69.7073C45.8793 69.4254 45.6701 69.1164 45.5353 68.7802C45.4038 68.4368 45.347 68.0751 45.3649 67.6952C45.3755 67.3119 45.4719 66.9244 45.654 66.5327C45.9812 65.8291 46.455 65.37 47.0752 65.1556C47.6989 64.9339 48.3952 65.0018 49.1641 65.3594L49.8061 65.6579ZM48.1277 66.6773C47.9899 66.6132 47.8473 66.5689 47.6998 66.5445C47.5558 66.5128 47.4197 66.5113 47.2917 66.5399C47.1564 66.5653 47.0344 66.6188 46.9258 66.7006C46.8172 66.7825 46.7258 66.9032 46.6515 67.0628C46.5166 67.3529 46.5032 67.6379 46.6114 67.9175C46.7195 68.1972 46.932 68.4328 47.2488 68.6242L48.1277 66.6773Z" fill="#E5E5E5"/>
<path d="M50.3409 60.1631C49.9185 60.4706 49.6021 60.8176 49.3918 61.2041C49.2694 61.4289 49.2124 61.6256 49.2209 61.7942C49.2332 61.9557 49.3061 62.0728 49.4396 62.1455C49.5731 62.2181 49.7107 62.2247 49.8524 62.1652C49.9979 62.0987 50.2097 61.927 50.4878 61.6503L50.7548 61.3857C51.1183 61.0189 51.4808 60.7881 51.8421 60.6933C52.2034 60.5984 52.5737 60.6543 52.9532 60.8608C53.4521 61.1323 53.7439 61.5416 53.8287 62.0887C53.9173 62.6288 53.7838 63.2255 53.4281 63.879C53.0648 64.5466 52.6337 65.0542 52.1347 65.402L51.2739 64.5237C51.4902 64.3772 51.6947 64.2107 51.8873 64.0241C52.0729 63.8337 52.2288 63.6225 52.355 63.3906C52.508 63.1096 52.5768 62.8828 52.5613 62.7105C52.5426 62.5273 52.463 62.3974 52.3224 62.3209C52.1749 62.2406 52.028 62.2427 51.8819 62.3271C51.7287 62.4077 51.5074 62.5969 51.2178 62.8946L50.9451 63.1698C50.5751 63.5149 50.2206 63.7227 49.8817 63.7933C49.5427 63.8638 49.18 63.7939 48.7935 63.5836C48.3368 63.335 48.0581 62.9602 47.9573 62.4591C47.8566 61.958 47.9746 61.3982 48.3111 60.7799C48.6438 60.1685 49.0472 59.6868 49.5212 59.3345L50.3409 60.1631Z" fill="#E5E5E5"/>
<path d="M53.6915 53.869L52.8793 55.1586L55.1132 56.5655C55.3433 56.7104 55.5344 56.7598 55.6863 56.7137C55.8358 56.6566 55.9659 56.54 56.0768 56.364C56.162 56.2286 56.2359 56.0813 56.2983 55.9221C56.3608 55.7629 56.396 55.6244 56.4041 55.5065L57.4763 55.8982C57.458 56.0474 57.4034 56.2541 57.3126 56.5184C57.2218 56.7826 57.0954 57.0434 56.9334 57.3006C56.5625 57.8895 56.1831 58.2368 55.7952 58.3423C55.4005 58.4435 54.9696 58.3471 54.5025 58.0529L52.0351 56.4989L51.5619 57.2503L50.5871 56.6363L51.0604 55.8849L49.5677 54.9449L50.4119 53.6045L51.9045 54.5446L52.7167 53.2551L53.6915 53.869Z" fill="#E5E5E5"/>
<path d="M58.6549 46.9968C58.1871 47.2296 57.8174 47.519 57.5455 47.865C57.3874 48.0663 57.2984 48.2507 57.2786 48.4183C57.2638 48.5796 57.3162 48.7072 57.4357 48.8012C57.5552 48.8951 57.6898 48.9245 57.8394 48.8894C57.994 48.8481 58.2315 48.7142 58.5518 48.4877L58.8591 48.2713C59.2788 47.9703 59.6746 47.8031 60.0467 47.7698C60.4187 47.7366 60.7746 47.8534 61.1143 48.1203C61.5609 48.4712 61.7805 48.9234 61.7728 49.477C61.7702 50.0243 61.539 50.5904 61.0794 51.1755C60.6099 51.7731 60.1001 52.2018 59.5501 52.4615L58.8478 51.4519C59.0855 51.3436 59.3149 51.2135 59.5359 51.0616C59.7507 50.9048 59.9396 50.7226 60.1027 50.515C60.3004 50.2634 60.406 50.0513 60.4195 49.8787C60.4316 49.695 60.3748 49.5537 60.249 49.4548C60.1168 49.351 59.9717 49.3286 59.8136 49.3874C59.6491 49.4413 59.3993 49.591 59.0641 49.8363L58.7494 50.0621C58.327 50.3407 57.9428 50.4865 57.5969 50.4996C57.2509 50.5126 56.9049 50.3832 56.5589 50.1114C56.15 49.7902 55.9377 49.3741 55.9219 48.8632C55.9062 48.3523 56.1158 47.8201 56.5507 47.2665C56.9807 46.7192 57.4587 46.3114 57.9849 46.0432L58.6549 46.9968Z" fill="#E5E5E5"/>
<path d="M64.9037 42.4341L62.3227 45.2285L62.3579 45.2611C62.6929 45.5705 63.0512 45.6836 63.4329 45.6005C63.8146 45.5174 64.1764 45.2908 64.5184 44.9205C64.7355 44.6854 64.9019 44.458 65.0178 44.2383C65.139 44.0127 65.2352 43.7966 65.3062 43.59L66.3215 44.1356C66.2513 44.3648 66.1314 44.6243 65.9617 44.9141C65.798 45.2094 65.5641 45.5215 65.2601 45.8507C64.967 46.168 64.6491 46.4297 64.3062 46.6358C63.963 46.8306 63.6055 46.9524 63.2338 47.0011C62.8675 47.044 62.4922 47.0023 62.1079 46.876C61.7236 46.7497 61.3433 46.5129 60.9672 46.1655C60.6322 45.8561 60.3757 45.5266 60.1976 45.177C60.0137 44.822 59.9089 44.4638 59.8832 44.1025C59.863 43.7354 59.9194 43.3736 60.0524 43.0173C60.1796 42.6556 60.3897 42.3161 60.6828 41.9987C61.2094 41.4287 61.8007 41.1363 62.4568 41.1216C63.1184 41.1009 63.7606 41.3783 64.3836 41.9537L64.9037 42.4341ZM62.9942 42.892C62.8825 42.7889 62.7602 42.7032 62.6273 42.6349C62.4998 42.5607 62.3707 42.5177 62.24 42.5059C62.1035 42.4886 61.971 42.5024 61.8425 42.5471C61.7141 42.5919 61.5902 42.6789 61.4708 42.8082C61.2537 43.0432 61.1539 43.3104 61.1714 43.6098C61.189 43.9092 61.3193 44.1984 61.5625 44.4774L62.9942 42.892Z" fill="#E5E5E5"/>
<path d="M68.1892 42.3445L64.239 38.2019L65.1335 37.349L65.976 37.9716C65.8646 37.6578 65.836 37.3148 65.8901 36.9426C65.9442 36.5704 66.1334 36.2297 66.4576 35.9206C66.5908 35.7936 66.7233 35.6949 66.8551 35.6245C66.9869 35.554 67.1069 35.506 67.215 35.4802L67.8935 36.5743C67.7967 36.6003 67.688 36.6486 67.5675 36.7193C67.4415 36.7842 67.3119 36.8802 67.1787 37.0072C66.895 37.2777 66.7487 37.5996 66.7399 37.9728C66.7313 38.3348 66.9312 38.7299 67.3398 39.1584L69.3356 41.2513L68.1892 42.3445Z" fill="#E5E5E5"/>
<path d="M71.2041 31.7343L72.5248 30.6767L74.5197 36.4123L73.0772 37.5674L67.9632 34.3296L69.2933 33.2645L71.7341 34.9687L73.0859 36.1L73.1233 36.07L72.3149 34.5037L71.2041 31.7343Z" fill="#E5E5E5"/>
<path d="M77.2643 34.1446L73.8986 29.5147L75.1896 28.5763L78.5552 33.2062L77.2643 34.1446ZM73.8292 28.0519C73.6092 28.2118 73.3931 28.275 73.1807 28.2414C72.9637 28.2014 72.787 28.0876 72.6506 27.8999C72.5142 27.7122 72.4627 27.5122 72.4963 27.2999C72.5252 27.0811 72.6496 26.8918 72.8696 26.7318C73.0832 26.5766 73.2985 26.519 73.5155 26.5591C73.7343 26.5879 73.9119 26.6962 74.0483 26.8838C74.1847 27.0715 74.2385 27.2747 74.2096 27.4935C74.176 27.7058 74.0492 27.892 73.8292 28.0519Z" fill="#E5E5E5"/>
<path d="M82.0767 29.4064C82.2936 29.2705 82.4665 29.1245 82.5953 28.9684C82.7266 28.8013 82.8295 28.6566 82.904 28.5344L83.7442 29.3109C83.6553 29.4704 83.5032 29.6647 83.288 29.8939C83.0728 30.123 82.8126 30.3331 82.5075 30.5241C82.1413 30.7534 81.7649 30.9135 81.3783 31.0046C80.9917 31.0956 80.6139 31.1103 80.245 31.0487C79.8786 30.9761 79.53 30.8263 79.1991 30.5993C78.8682 30.3723 78.5732 30.0519 78.3143 29.6383C78.0765 29.2586 77.9244 28.8725 77.858 28.4799C77.7915 28.0873 77.8035 27.707 77.894 27.3389C77.9844 26.9708 78.1542 26.6238 78.4032 26.298C78.6523 25.9722 78.97 25.6883 79.3565 25.4463C79.5667 25.3147 79.7998 25.197 80.0559 25.0934C80.3187 24.9855 80.6213 24.9187 80.9639 24.8929L81.265 26.007C81.0716 26.0148 80.8754 26.048 80.6761 26.1067C80.4794 26.1543 80.2963 26.2312 80.1268 26.3373C79.7064 26.6005 79.4446 26.9438 79.3415 27.367C79.2452 27.786 79.352 28.243 79.6619 28.738C79.8444 29.0295 80.0401 29.2515 80.2488 29.404C80.4601 29.5455 80.6717 29.6348 80.8837 29.6719C81.0958 29.7091 81.3035 29.7017 81.507 29.6498C81.7105 29.5979 81.9004 29.5168 82.0767 29.4064Z" fill="#E5E5E5"/>
<path d="M88.5507 23.9326L85.1699 25.6761L85.1919 25.7188C85.4009 26.1241 85.6989 26.3529 86.086 26.4053C86.4731 26.4577 86.8906 26.3684 87.3385 26.1374C87.6229 25.9908 87.8571 25.834 88.0411 25.6671C88.2322 25.4965 88.3964 25.3263 88.5338 25.1564L89.3013 26.0163C89.157 26.2077 88.9556 26.4106 88.6971 26.6249C88.4422 26.8464 88.1157 27.0598 87.7176 27.2651C87.3336 27.4631 86.9453 27.6004 86.5527 27.6768C86.1635 27.7425 85.786 27.7347 85.42 27.6534C85.0611 27.5685 84.7227 27.401 84.4047 27.1509C84.0867 26.9008 83.8104 26.5483 83.5757 26.0932C83.3667 25.688 83.2383 25.2906 83.1905 24.9012C83.139 24.5047 83.163 24.1323 83.2624 23.784C83.3689 23.432 83.5456 23.1114 83.7924 22.822C84.0356 22.5256 84.3492 22.2784 84.7331 22.0804C85.4228 21.7247 86.0785 21.6521 86.7001 21.8626C87.3288 22.0694 87.8375 22.5496 88.2262 23.3033L88.5507 23.9326ZM86.5997 23.7101C86.5301 23.575 86.4444 23.4526 86.3429 23.3429C86.2484 23.2296 86.1418 23.1451 86.0231 23.0893C85.9006 23.0265 85.7714 22.9941 85.6354 22.9922C85.4994 22.9903 85.3532 23.0297 85.1968 23.1104C84.9124 23.2571 84.7273 23.4741 84.6414 23.7614C84.5556 24.0487 84.5792 24.365 84.7123 24.7104L86.5997 23.7101Z" fill="#E5E5E5"/>
<path d="M93.3224 14.8563C93.5899 14.7496 93.8685 14.6815 94.1582 14.652C94.445 14.6151 94.7072 14.6139 94.9448 14.6482L95.0419 15.7335C94.8919 15.7245 94.7463 15.7266 94.6052 15.7398C94.4611 15.7456 94.3147 15.7782 94.1661 15.8375C93.906 15.9413 93.744 16.0964 93.6799 16.3028C93.6129 16.5018 93.652 16.7834 93.7973 17.1474L94.0019 17.6601L95.3393 17.1265L95.7662 18.1965L94.4288 18.7301L96.1231 22.9766L94.6519 23.5636L92.9576 19.3171L92.1439 19.6418L91.717 18.5718L92.5306 18.2471L92.2016 17.4224C91.9644 16.8279 91.9507 16.308 92.1606 15.8625C92.3704 15.417 92.7577 15.0816 93.3224 14.8563Z" fill="#E5E5E5"/>
<path d="M103.364 17.2104C103.503 17.6614 103.555 18.089 103.521 18.4931C103.487 18.8972 103.378 19.2655 103.196 19.598C103.02 19.9205 102.781 20.2036 102.479 20.4474C102.175 20.6836 101.825 20.863 101.427 20.9857C101.03 21.1084 100.64 21.1617 100.258 21.1456C99.8842 21.1272 99.5344 21.0384 99.209 20.8793C98.8912 20.7179 98.6066 20.4876 98.3552 20.1884C98.109 19.8793 97.9175 19.5031 97.7806 19.0597C97.6367 18.5934 97.5819 18.1582 97.6162 17.7541C97.6481 17.3424 97.7525 16.9752 97.9292 16.6528C98.1112 16.3203 98.3542 16.0359 98.658 15.7998C98.9619 15.5637 99.3125 15.3842 99.71 15.2615C100.108 15.1388 100.493 15.0867 100.867 15.1051C101.249 15.1212 101.599 15.21 101.917 15.3714C102.24 15.5229 102.524 15.7532 102.77 16.0623C103.024 16.3691 103.222 16.7518 103.364 17.2104ZM101.81 17.7528C101.714 17.4393 101.597 17.1824 101.459 16.982C101.322 16.7816 101.175 16.6302 101.018 16.5281C100.861 16.4259 100.696 16.3678 100.525 16.3538C100.35 16.3322 100.183 16.3462 100.023 16.3958C99.862 16.4453 99.7186 16.5231 99.5922 16.6291C99.4635 16.7275 99.3631 16.8631 99.2909 17.0361C99.2164 17.2015 99.1789 17.4056 99.1786 17.6485C99.1782 17.8914 99.2299 18.1811 99.3338 18.5174C99.4258 18.8155 99.5405 19.0648 99.6777 19.2652C99.8126 19.458 99.9586 19.6055 100.116 19.7077C100.28 19.8075 100.446 19.8694 100.613 19.8934C100.787 19.915 100.954 19.901 101.115 19.8514C101.275 19.8019 101.42 19.7279 101.548 19.6296C101.675 19.5236 101.774 19.3841 101.846 19.2111C101.918 19.0381 101.956 18.834 101.959 18.5987C101.959 18.3558 101.91 18.0738 101.81 17.7528Z" fill="#E5E5E5"/>
<path d="M105.516 19.4728L104.145 13.9154L105.345 13.6194L105.767 14.5782C105.826 14.2505 105.971 13.9386 106.203 13.6424C106.435 13.3463 106.768 13.1446 107.203 13.0373C107.382 12.9932 107.546 12.9733 107.695 12.9777C107.845 12.982 107.973 12.9999 108.079 13.0312L108.125 14.3178C108.028 14.2923 107.91 14.2803 107.77 14.2818C107.628 14.2755 107.468 14.2944 107.29 14.3385C106.909 14.4324 106.622 14.6391 106.429 14.9586C106.242 15.2685 106.219 15.7108 106.361 16.2856L107.054 19.0934L105.516 19.4728Z" fill="#E5E5E5"/>
<path d="M114.628 8.63037C114.913 8.58752 115.199 8.58481 115.488 8.62226C115.776 8.6518 116.031 8.71043 116.255 8.79815L116.102 9.87695C115.958 9.8339 115.815 9.80271 115.675 9.78339C115.533 9.75616 115.383 9.75445 115.225 9.77825C114.948 9.81991 114.755 9.93392 114.646 10.1203C114.535 10.2987 114.509 10.5818 114.567 10.9694L114.649 11.5153L116.073 11.301L116.245 12.4402L114.821 12.6545L115.501 17.1756L113.935 17.4112L113.254 12.8901L112.388 13.0205L112.217 11.8813L113.083 11.751L112.951 10.8728C112.856 10.24 112.961 9.73061 113.267 9.34479C113.573 8.95897 114.027 8.72083 114.628 8.63037Z" fill="#E5E5E5"/>
<path d="M118.148 16.7088L117.537 11.0175L119.124 10.8471L119.735 16.5384L118.148 16.7088ZM118.206 9.71467C117.935 9.7437 117.716 9.69077 117.549 9.55586C117.381 9.413 117.284 9.22623 117.26 8.99556C117.235 8.76488 117.29 8.56587 117.425 8.39851C117.559 8.2232 117.761 8.12103 118.032 8.09199C118.294 8.06381 118.509 8.12115 118.678 8.26401C118.853 8.39806 118.953 8.58042 118.978 8.8111C119.003 9.04177 118.948 9.24476 118.814 9.42008C118.679 9.58743 118.476 9.68563 118.206 9.71467Z" fill="#E5E5E5"/>
<path d="M124.755 15.9499L123.16 15.9859L123.031 10.2633L124.279 10.2352L124.487 10.9627C124.745 10.6848 125.028 10.4704 125.337 10.3194C125.653 10.1603 126.004 10.0764 126.387 10.0677C127.019 10.0535 127.507 10.2145 127.851 10.5509C128.194 10.8872 128.374 11.3833 128.388 12.0392L128.474 15.8662L126.879 15.9021L126.796 12.243C126.79 11.9471 126.713 11.7168 126.565 11.5521C126.417 11.3794 126.203 11.2962 125.923 11.3025C125.715 11.3072 125.497 11.3721 125.267 11.4973C125.046 11.6143 124.845 11.7749 124.666 11.9789L124.755 15.9499Z" fill="#E5E5E5"/>
<path d="M134.118 7.27445L135.712 7.36189L135.243 15.917L134.104 15.8546L133.971 15.2223L133.911 15.219C133.756 15.4108 133.539 15.5752 133.259 15.712C132.987 15.8493 132.635 15.9062 132.204 15.8825C131.845 15.8628 131.513 15.7765 131.209 15.6236C130.905 15.4707 130.644 15.2601 130.426 14.9918C130.209 14.7234 130.042 14.4018 129.926 14.0269C129.819 13.6525 129.778 13.2296 129.804 12.7583C129.829 12.303 129.911 11.8949 130.051 11.534C130.191 11.1731 130.38 10.871 130.618 10.6277C130.856 10.3764 131.142 10.1918 131.477 10.074C131.813 9.94814 132.192 9.89684 132.615 9.92007C132.887 9.93497 133.14 9.98894 133.376 10.082C133.619 10.1754 133.809 10.29 133.946 10.4257L134.118 7.27445ZM133.88 11.6119C133.784 11.4784 133.654 11.3631 133.491 11.2661C133.328 11.169 133.147 11.115 132.947 11.104C132.755 11.0935 132.57 11.1154 132.39 11.1696C132.219 11.2243 132.062 11.3198 131.918 11.4562C131.783 11.585 131.669 11.763 131.576 11.9903C131.484 12.2095 131.429 12.4829 131.411 12.8104C131.394 13.13 131.414 13.4075 131.474 13.6431C131.533 13.8787 131.618 14.0757 131.73 14.234C131.841 14.3924 131.975 14.5119 132.131 14.5925C132.294 14.6736 132.468 14.7192 132.652 14.7293C132.907 14.7433 133.126 14.6952 133.309 14.5851C133.499 14.4673 133.643 14.327 133.74 14.1641L133.88 11.6119Z" fill="#E5E5E5"/>
<path d="M136.457 15.9188L137.012 10.2218L138.6 10.3765L138.045 16.0735L136.457 15.9188ZM137.931 9.08148C137.66 9.05512 137.456 8.95893 137.32 8.79291C137.184 8.61893 137.127 8.41648 137.15 8.18558C137.172 7.95467 137.266 7.77094 137.432 7.63439C137.599 7.48988 137.818 7.4308 138.089 7.45717C138.352 7.48276 138.551 7.58255 138.687 7.75653C138.831 7.92332 138.892 8.12217 138.87 8.35308C138.847 8.58399 138.752 8.7717 138.586 8.91621C138.42 9.05276 138.201 9.10785 137.931 9.08148Z" fill="#E5E5E5"/>
<path d="M143.09 16.5211L141.521 16.2321L142.557 10.6027L143.785 10.8287L143.841 11.5834C144.15 11.3637 144.471 11.2113 144.804 11.1262C145.146 11.0347 145.506 11.0237 145.884 11.0932C146.505 11.2077 146.95 11.4645 147.218 11.8637C147.486 12.2628 147.561 12.785 147.442 13.4301L146.749 17.1948L145.179 16.9058L145.842 13.3063C145.896 13.0152 145.867 12.774 145.756 12.5827C145.646 12.3835 145.453 12.2586 145.178 12.2079C144.974 12.1702 144.746 12.1894 144.496 12.2654C144.256 12.335 144.027 12.4514 143.81 12.6148L143.09 16.5211Z" fill="#E5E5E5"/>
<path d="M149.205 13.6056C149.285 13.3041 149.417 13.0452 149.599 12.8288C149.788 12.6145 150.01 12.4502 150.264 12.3359C150.528 12.2159 150.816 12.1477 151.126 12.1313C151.445 12.1169 151.778 12.1562 152.126 12.2491C152.257 12.2841 152.397 12.3339 152.545 12.3984C152.696 12.4551 152.832 12.5203 152.953 12.5941L155.318 13.2255L155.058 14.1994L154.559 14.0663L153.868 13.77C153.936 13.9205 153.976 14.0968 153.988 14.2988C154.008 14.5029 153.993 14.6977 153.944 14.8832C153.787 15.4706 153.447 15.8892 152.925 16.139C152.413 16.3831 151.79 16.4071 151.055 16.2111C150.862 16.1595 150.696 16.0986 150.558 16.0285C150.344 16.0542 150.213 16.156 150.166 16.3337C150.133 16.4574 150.15 16.5615 150.219 16.646C150.288 16.7306 150.43 16.8017 150.646 16.8595L151.887 17.1907C152.498 17.3537 152.948 17.619 153.239 17.9865C153.54 18.3484 153.612 18.823 153.455 19.4104C153.375 19.7119 153.228 19.9666 153.015 20.1748C152.808 20.3927 152.549 20.5555 152.239 20.6631C151.927 20.7784 151.572 20.8368 151.174 20.8382C150.776 20.8397 150.349 20.7795 149.893 20.6577C149.051 20.4328 148.422 20.1036 148.008 19.6701C147.6 19.2464 147.47 18.7563 147.618 18.1997C147.686 17.9447 147.831 17.7432 148.053 17.5954C148.272 17.4553 148.547 17.3714 148.878 17.3436C148.79 17.2375 148.711 17.1004 148.64 16.9323C148.571 16.7566 148.565 16.5605 148.623 16.3441C148.691 16.089 148.827 15.8894 149.031 15.7452C149.235 15.6009 149.472 15.5067 149.74 15.4625C149.641 15.3697 149.545 15.2614 149.454 15.1377C149.373 15.0083 149.303 14.8656 149.246 14.7094C149.188 14.5533 149.151 14.3819 149.134 14.1953C149.126 14.0109 149.149 13.8143 149.205 13.6056ZM149.664 17.8394C149.532 17.8702 149.414 17.9256 149.31 18.0055C149.205 18.0853 149.133 18.2025 149.091 18.3571C149.032 18.5812 149.083 18.7936 149.244 18.9941C149.412 19.2044 149.747 19.3766 150.249 19.5107C150.751 19.6449 151.141 19.6579 151.419 19.5497C151.696 19.4416 151.863 19.2793 151.921 19.0629C151.979 18.8465 151.946 18.6762 151.822 18.5519C151.697 18.4277 151.481 18.3243 151.172 18.2418L149.664 17.8394ZM152.443 14.4576C152.523 14.1561 152.503 13.9065 152.382 13.7085C152.261 13.5106 152.077 13.3786 151.829 13.3126C151.574 13.2445 151.345 13.2661 151.141 13.3773C150.945 13.4907 150.808 13.6942 150.73 13.9879C150.647 14.2971 150.667 14.5506 150.788 14.7485C150.909 14.9464 151.093 15.0784 151.34 15.1445C151.595 15.2125 151.821 15.1899 152.017 15.0766C152.22 14.9654 152.362 14.759 152.443 14.4576Z" fill="#E5E5E5"/>
<path d="M160.623 20.9138C160.429 20.8371 160.246 20.7344 160.074 20.6057C159.905 20.4873 159.773 20.3659 159.676 20.2414L158.605 22.9409L157.133 22.3571L160.269 14.4481L161.396 14.8949L161.317 15.548C161.616 15.4253 161.926 15.359 162.248 15.3491C162.574 15.3318 162.907 15.391 163.249 15.5266C163.948 15.8038 164.404 16.26 164.617 16.8952C164.84 17.5259 164.787 18.2577 164.457 19.0906C164.271 19.5591 164.035 19.9476 163.749 20.2559C163.466 20.5569 163.154 20.7814 162.811 20.9295C162.468 21.0776 162.108 21.15 161.731 21.1466C161.356 21.1359 160.987 21.0583 160.623 20.9138ZM162.405 16.4829C162.16 16.3856 161.921 16.3596 161.688 16.4048C161.457 16.4427 161.27 16.5019 161.127 16.5826L160.118 19.1259C160.275 19.4032 160.524 19.6097 160.866 19.7454C161.03 19.8102 161.202 19.8439 161.382 19.8463C161.572 19.8443 161.757 19.8014 161.936 19.7176C162.126 19.6294 162.302 19.4885 162.465 19.2949C162.635 19.1042 162.784 18.849 162.911 18.5292C163.002 18.2987 163.06 18.0764 163.085 17.8624C163.117 17.6514 163.112 17.4561 163.072 17.2764C163.031 17.0968 162.956 16.9381 162.848 16.8002C162.739 16.6624 162.591 16.5566 162.405 16.4829Z" fill="#E5E5E5"/>
<path d="M170.372 22.2356L166.962 20.5491L166.941 20.5921C166.739 21.0008 166.731 21.3765 166.919 21.7192C167.106 22.0618 167.426 22.3449 167.878 22.5683C168.165 22.7102 168.43 22.8057 168.673 22.8547C168.924 22.9073 169.159 22.9385 169.377 22.9483L169.14 24.0763C168.9 24.0737 168.618 24.032 168.292 23.9511C167.962 23.8774 167.597 23.7413 167.195 23.5426C166.808 23.3511 166.467 23.12 166.173 22.8494C165.889 22.5751 165.671 22.2666 165.519 21.9238C165.375 21.5845 165.309 21.2127 165.321 20.8084C165.334 20.404 165.454 19.9724 165.681 19.5135C165.883 19.1047 166.126 18.7656 166.411 18.496C166.7 18.2193 167.014 18.0176 167.353 17.8909C167.7 17.7678 168.063 17.7197 168.442 17.7467C168.825 17.7665 169.21 17.8722 169.597 18.0637C170.293 18.4077 170.74 18.8924 170.94 19.5176C171.146 20.1464 171.062 20.8409 170.686 21.601L170.372 22.2356ZM169.393 20.5332C169.461 20.397 169.508 20.2555 169.536 20.1086C169.571 19.9654 169.576 19.8294 169.551 19.7007C169.529 19.5649 169.478 19.4416 169.399 19.3311C169.32 19.2205 169.201 19.1262 169.043 19.0482C168.757 18.9063 168.472 18.8861 168.19 18.9875C167.908 19.0889 167.667 19.2956 167.468 19.6077L169.393 20.5332Z" fill="#E5E5E5"/>
<path d="M177.399 25.4924C177.155 25.8966 176.871 26.2205 176.547 26.4639C176.223 26.7074 175.876 26.872 175.507 26.9576C175.148 27.0405 174.778 27.0506 174.395 26.988C174.017 26.9186 173.649 26.7764 173.293 26.5616C172.937 26.3468 172.638 26.0916 172.395 25.7961C172.16 25.5047 171.993 25.1847 171.895 24.8359C171.804 24.4914 171.787 24.1257 171.842 23.7389C171.909 23.3494 172.062 22.956 172.302 22.5587C172.554 22.1408 172.842 21.8101 173.166 21.5666C173.495 21.3163 173.838 21.1496 174.196 21.0667C174.566 20.9811 174.94 20.9731 175.318 21.0425C175.697 21.112 176.064 21.2541 176.42 21.4689C176.776 21.6837 177.072 21.9369 177.308 22.2282C177.55 22.5238 177.716 22.8438 177.808 23.1884C177.91 23.5302 177.927 23.8959 177.861 24.2854C177.801 24.679 177.647 25.0814 177.399 25.4924ZM175.96 24.6948C176.13 24.4139 176.243 24.1556 176.302 23.9197C176.36 23.6839 176.375 23.4733 176.346 23.288C176.318 23.1027 176.252 22.9414 176.148 22.8039C176.048 22.6597 175.926 22.5441 175.782 22.4574C175.638 22.3706 175.485 22.3154 175.322 22.2917C175.162 22.2612 174.994 22.2766 174.817 22.3379C174.644 22.3924 174.467 22.5004 174.286 22.6619C174.104 22.8234 173.922 23.0548 173.741 23.3563C173.58 23.6234 173.47 23.875 173.412 24.1108C173.358 24.3398 173.345 24.547 173.373 24.7322C173.409 24.9217 173.473 25.0864 173.566 25.2266C173.665 25.3709 173.787 25.4864 173.931 25.5731C174.075 25.6599 174.227 25.7186 174.386 25.7491C174.549 25.7728 174.719 25.754 174.896 25.6926C175.073 25.6313 175.25 25.5233 175.428 25.3686C175.609 25.2072 175.787 24.9825 175.96 24.6948Z" fill="#E5E5E5"/>
<path d="M179.481 30.3111C179.312 30.189 179.16 30.0442 179.025 29.8768C178.891 29.7205 178.793 29.5701 178.73 29.4254L177.025 31.7763L175.742 30.8464L180.737 23.9589L181.718 24.6705L181.481 25.284C181.8 25.2388 182.117 25.2514 182.432 25.3215C182.752 25.3852 183.06 25.5251 183.358 25.7411C183.967 26.1826 184.296 26.7374 184.345 27.4055C184.405 28.0718 184.173 28.7676 183.647 29.493C183.351 29.901 183.026 30.219 182.673 30.4471C182.324 30.6687 181.966 30.8089 181.597 30.8676C181.228 30.9263 180.862 30.9074 180.497 30.8109C180.137 30.7078 179.798 30.5412 179.481 30.3111ZM182.304 26.4589C182.09 26.3039 181.865 26.2195 181.628 26.2057C181.396 26.1855 181.2 26.1966 181.04 26.2392L179.434 28.454C179.517 28.7615 179.708 29.0233 180.006 29.2393C180.148 29.3427 180.306 29.4177 180.48 29.4646C180.665 29.5096 180.854 29.5138 181.049 29.477C181.255 29.4385 181.461 29.3456 181.666 29.1983C181.878 29.0557 182.086 28.8451 182.287 28.5667C182.433 28.3659 182.544 28.1649 182.621 27.9636C182.704 27.7671 182.748 27.5767 182.753 27.3926C182.759 27.2085 182.725 27.0362 182.654 26.8758C182.583 26.7153 182.466 26.5763 182.304 26.4589Z" fill="#E5E5E5"/>
<path d="M182.834 32.5026L188.184 25.8097L189.412 26.7912L184.062 33.4841L182.834 32.5026Z" fill="#E5E5E5"/>
<path d="M191.862 36.8937L189.108 34.2701L189.075 34.3048C188.76 34.635 188.642 34.9916 188.719 35.3745C188.796 35.7574 189.017 36.1226 189.382 36.4702C189.614 36.6909 189.839 36.8609 190.057 36.9801C190.28 37.1048 190.495 37.2042 190.701 37.2785L190.139 38.2852C189.911 38.2115 189.654 38.0876 189.366 37.9135C189.074 37.7452 188.765 37.5066 188.441 37.1976C188.128 36.8997 187.871 36.5777 187.67 36.2318C187.481 35.8855 187.365 35.5262 187.322 35.1538C187.284 34.7869 187.332 34.4123 187.464 34.03C187.596 33.6476 187.839 33.2711 188.192 32.9003C188.506 32.5702 188.84 32.3187 189.192 32.1461C189.55 31.9676 189.91 31.8683 190.271 31.8482C190.639 31.8336 191 31.8956 191.354 32.0341C191.714 32.1668 192.05 32.3821 192.363 32.6801C192.925 33.2153 193.208 33.811 193.212 34.4673C193.223 35.1291 192.936 35.767 192.351 36.381L191.862 36.8937ZM191.434 34.9774C191.539 34.8673 191.626 34.7464 191.697 34.6145C191.773 34.4882 191.818 34.3598 191.832 34.2293C191.851 34.093 191.839 33.9603 191.796 33.8312C191.754 33.7021 191.669 33.5769 191.541 33.4555C191.309 33.2348 191.044 33.1309 190.744 33.1438C190.445 33.1568 190.153 33.2827 189.871 33.5216L191.434 34.9774Z" fill="#E5E5E5"/>
<path d="M199.356 41.5548L198.358 40.403L196.363 42.1319C196.157 42.31 196.055 42.4785 196.055 42.6373C196.066 42.7969 196.14 42.9553 196.276 43.1125C196.381 43.2334 196.5 43.3469 196.634 43.4529C196.768 43.5589 196.891 43.6328 197.001 43.6748L196.315 44.587C196.178 44.5261 195.996 44.4138 195.769 44.2502C195.543 44.0865 195.33 43.8899 195.131 43.6601C194.675 43.1341 194.453 42.6702 194.465 42.2684C194.482 41.8613 194.7 41.477 195.117 41.1155L197.321 39.2059L196.739 38.5348L197.61 37.7804L198.191 38.4515L199.524 37.2963L200.562 38.4934L199.229 39.6486L200.227 40.8004L199.356 41.5548Z" fill="#E5E5E5"/>
<path d="M202.622 48.2225C202.242 48.502 201.855 48.6919 201.462 48.7921C201.069 48.8923 200.686 48.911 200.312 48.8482C199.949 48.7871 199.603 48.6542 199.274 48.4494C198.951 48.2399 198.667 47.9675 198.42 47.6323C198.174 47.2971 197.996 46.9466 197.886 46.5807C197.78 46.2213 197.749 45.8618 197.793 45.5022C197.841 45.149 197.965 44.8046 198.165 44.4689C198.376 44.1349 198.669 43.8306 199.043 43.5557C199.436 43.2667 199.829 43.0721 200.222 42.9719C200.622 42.8669 201.003 42.845 201.365 42.9061C201.739 42.9689 202.087 43.1051 202.41 43.3146C202.733 43.5241 203.017 43.7965 203.264 44.1317C203.51 44.4669 203.686 44.8142 203.791 45.1736C203.902 45.5395 203.932 45.899 203.884 46.2522C203.847 46.607 203.723 46.9514 203.512 47.2854C203.305 47.6258 203.009 47.9382 202.622 48.2225ZM201.6 46.9334C201.864 46.7391 202.069 46.5443 202.213 46.3489C202.357 46.1534 202.452 45.9647 202.497 45.7828C202.542 45.6008 202.543 45.4264 202.499 45.2596C202.463 45.088 202.394 44.9345 202.295 44.7992C202.195 44.6638 202.075 44.5538 201.933 44.4693C201.798 44.38 201.637 44.3296 201.45 44.3182C201.269 44.3021 201.064 44.3337 200.835 44.4131C200.605 44.4925 200.348 44.6364 200.065 44.8449C199.813 45.0296 199.616 45.2197 199.471 45.4152C199.333 45.6058 199.242 45.7922 199.197 45.9741C199.157 46.1626 199.153 46.3393 199.185 46.5045C199.222 46.676 199.29 46.8295 199.389 46.9648C199.489 47.1002 199.606 47.2125 199.741 47.3019C199.883 47.3864 200.047 47.4344 200.234 47.4458C200.421 47.4572 200.626 47.4256 200.849 47.3509C201.079 47.2716 201.329 47.1324 201.6 46.9334Z" fill="#E5E5E5"/>
<path d="M208.056 57.3043L206.186 53.9916L206.144 54.0152C205.747 54.2393 205.53 54.5458 205.492 54.9345C205.454 55.3233 205.559 55.7372 205.807 56.1761C205.964 56.4547 206.13 56.6829 206.303 56.8604C206.481 57.0449 206.657 57.2026 206.832 57.3335L206.002 58.1329C205.805 57.9959 205.595 57.8023 205.371 57.5521C205.14 57.3058 204.914 56.9875 204.694 56.5974C204.482 56.2212 204.33 55.8383 204.239 55.4489C204.158 55.0625 204.152 54.6849 204.219 54.3161C204.291 53.9543 204.445 53.6098 204.683 53.2826C204.921 52.9554 205.263 52.666 205.709 52.4143C206.106 52.1901 206.498 52.0468 206.886 51.9844C207.28 51.918 207.653 51.9279 208.005 52.0141C208.361 52.1073 208.688 52.2717 208.986 52.5075C209.291 52.7393 209.55 53.0433 209.763 53.4195C210.144 54.0953 210.241 54.7477 210.055 55.3769C209.872 56.0129 209.411 56.5394 208.672 56.9562L208.056 57.3043ZM208.205 55.3463C208.337 55.2716 208.456 55.1814 208.562 55.0758C208.671 54.9771 208.752 54.8674 208.803 54.7466C208.861 54.6219 208.889 54.4915 208.886 54.3556C208.882 54.2196 208.837 54.075 208.751 53.9217C208.594 53.6431 208.37 53.4662 208.079 53.3913C207.789 53.3163 207.474 53.3519 207.134 53.4979L208.205 55.3463Z" fill="#E5E5E5"/>
<path d="M211.211 62.1011L209.41 65.1736L208.637 63.5084L209.189 62.5902L209.889 61.6172L208.725 61.562L207.666 61.4187L206.903 59.7752L210.403 60.3596L212.145 57.4733L212.893 59.0841L212.325 59.9965L211.644 60.8948L212.759 60.9325L213.803 61.0432L214.536 62.6214L211.211 62.1011Z" fill="#E5E5E5"/>
<path d="M212.214 68.8807C212.308 69.1191 212.419 69.3161 212.548 69.4717C212.688 69.6318 212.811 69.7599 212.917 69.8558L211.998 70.5368C211.858 70.4198 211.695 70.2342 211.51 69.9802C211.325 69.7261 211.167 69.4314 211.036 69.096C210.879 68.6936 210.792 68.294 210.774 67.8972C210.757 67.5004 210.812 67.1265 210.942 66.7755C211.081 66.429 211.293 66.1143 211.578 65.8314C211.862 65.5485 212.232 65.3183 212.686 65.1408C213.104 64.9779 213.511 64.9002 213.91 64.908C214.308 64.9157 214.679 64.9982 215.024 65.1556C215.369 65.3129 215.678 65.5443 215.952 65.8496C216.226 66.1549 216.446 66.5199 216.611 66.9447C216.702 67.1757 216.774 67.4266 216.828 67.6975C216.885 67.9757 216.895 68.2856 216.856 68.6269L215.706 68.7155C215.734 68.5241 215.738 68.3251 215.717 68.1184C215.707 67.9163 215.665 67.7221 215.593 67.5358C215.412 67.0737 215.124 66.7527 214.727 66.5726C214.333 66.4 213.864 66.42 213.32 66.6324C213 66.7575 212.745 66.9084 212.557 67.0852C212.379 67.2664 212.251 67.4578 212.176 67.6592C212.1 67.8606 212.068 68.0661 212.081 68.2757C212.094 68.4852 212.139 68.6869 212.214 68.8807Z" fill="#E5E5E5"/>
<path d="M212.925 73.3915L212.449 71.8684L220.626 69.3097L221.102 70.8329L217.896 71.8363C218.141 72.0027 218.365 72.2093 218.567 72.456C218.773 72.7103 218.928 73.0054 219.033 73.3413C219.133 73.662 219.171 73.9562 219.146 74.2239C219.131 74.4969 219.059 74.7372 218.931 74.9449C218.814 75.1578 218.644 75.3406 218.424 75.4934C218.211 75.6438 217.964 75.7632 217.681 75.8516L214.051 76.9876L213.574 75.4644L216.941 74.4109C217.315 74.2938 217.559 74.1338 217.671 73.931C217.784 73.7281 217.794 73.4816 217.704 73.1915C217.642 72.993 217.527 72.8023 217.361 72.6196C217.205 72.4421 217.021 72.2945 216.808 72.1767L212.925 73.3915Z" fill="#E5E5E5"/>
<path d="M219.806 77.4151C220.081 77.7028 220.314 78.0212 220.505 78.3703C220.703 78.7175 220.853 79.1011 220.954 79.5212C221.035 79.8556 221.069 80.1683 221.056 80.4593C221.046 80.758 220.978 81.0252 220.854 81.2607C220.739 81.5022 220.562 81.7053 220.321 81.87C220.091 82.0406 219.793 82.1698 219.427 82.2577L215.81 83.1269L215.521 81.9252L216.06 81.6477L216.048 81.6011C215.788 81.4745 215.561 81.2862 215.37 81.036C215.18 80.7937 215.041 80.4897 214.953 80.1242C214.88 79.8208 214.858 79.5422 214.888 79.2882C214.925 79.0324 214.998 78.8051 215.106 78.6063C215.223 78.4055 215.376 78.2371 215.565 78.1011C215.756 77.9728 215.973 77.8797 216.214 77.8218C216.533 77.7451 216.821 77.7458 217.078 77.8238C217.345 77.9078 217.582 78.0526 217.787 78.2582C217.993 78.4638 218.169 78.7176 218.316 79.0197C218.464 79.3296 218.584 79.6712 218.673 80.0446L218.842 80.7447L219.18 80.6634C219.437 80.6017 219.604 80.4751 219.681 80.2837C219.768 80.0983 219.777 79.8616 219.708 79.5738C219.654 79.3482 219.563 79.1233 219.435 78.899C219.309 78.6824 219.133 78.449 218.908 78.1986L219.806 77.4151ZM217.876 80.9891L217.744 80.4902C217.614 80.0194 217.453 79.7085 217.26 79.5573C217.075 79.4043 216.882 79.352 216.68 79.4006C216.415 79.4642 216.251 79.5859 216.187 79.7658C216.133 79.9516 216.131 80.1456 216.179 80.3478C216.228 80.5501 216.332 80.7266 216.492 80.8775C216.653 81.0361 216.823 81.1434 217.001 81.1994L217.876 80.9891Z" fill="#E5E5E5"/>
<path d="M216.835 87.2085L216.564 85.6356L222.205 84.6654L222.417 85.8953L221.728 86.2086C222.041 86.4227 222.294 86.6712 222.489 86.9543C222.693 87.2439 222.828 87.5779 222.893 87.9564C223 88.5792 222.913 89.0854 222.631 89.4748C222.348 89.8643 221.884 90.1146 221.238 90.2258L217.465 90.8747L217.195 89.3018L220.802 88.6814C221.093 88.6312 221.31 88.5209 221.451 88.3505C221.6 88.1788 221.651 87.9549 221.603 87.679C221.568 87.474 221.472 87.2674 221.314 87.0591C221.166 86.8573 220.977 86.6827 220.749 86.5352L216.835 87.2085Z" fill="#E5E5E5"/>
<path d="M221.581 91.666C221.891 91.6305 222.18 91.6579 222.448 91.748C222.717 91.8461 222.951 91.9924 223.151 92.187C223.359 92.3887 223.528 92.6311 223.657 92.9143C223.787 93.2054 223.872 93.5298 223.913 93.8875C223.928 94.0226 223.933 94.171 223.928 94.3327C223.93 94.4935 223.919 94.6437 223.895 94.7833L224.173 97.2155L223.171 97.33L223.113 96.8174L223.135 96.0659C223.02 96.1838 222.871 96.2854 222.687 96.3708C222.504 96.4642 222.318 96.5218 222.127 96.5436C221.523 96.6127 221.009 96.45 220.586 96.0556C220.171 95.6682 219.92 95.0969 219.834 94.3419C219.811 94.1431 219.807 93.9665 219.822 93.8118C219.72 93.6222 219.577 93.5378 219.394 93.5588C219.267 93.5733 219.177 93.6279 219.123 93.7226C219.07 93.8173 219.055 93.976 219.081 94.1985L219.227 95.4742C219.299 96.1021 219.217 96.6187 218.981 97.0241C218.755 97.4365 218.339 97.6773 217.735 97.7464C217.425 97.7818 217.135 97.7386 216.863 97.6167C216.584 97.5036 216.338 97.3224 216.124 97.0731C215.903 96.8246 215.718 96.5156 215.571 96.1459C215.424 95.7762 215.324 95.3569 215.271 94.8879C215.171 94.0216 215.248 93.3163 215.5 92.7722C215.744 92.2369 216.153 91.9365 216.725 91.8711C216.987 91.8411 217.228 91.9022 217.447 92.0543C217.657 92.2073 217.836 92.4325 217.983 92.7297C218.05 92.6094 218.148 92.4854 218.279 92.3577C218.417 92.2292 218.597 92.1522 218.82 92.1267C219.082 92.0968 219.318 92.1503 219.527 92.2875C219.736 92.4246 219.91 92.61 220.049 92.8437C220.099 92.7172 220.165 92.5889 220.247 92.4588C220.337 92.3357 220.445 92.2187 220.569 92.1079C220.693 91.997 220.839 91.8998 221.007 91.8163C221.175 91.7406 221.367 91.6905 221.581 91.666ZM217.81 93.6434C217.732 93.5314 217.638 93.4416 217.525 93.3739C217.413 93.3063 217.277 93.2815 217.118 93.2997C216.888 93.3261 216.709 93.4512 216.581 93.6751C216.447 93.9079 216.409 94.2826 216.468 94.7993C216.527 95.3159 216.658 95.6834 216.86 95.9019C217.062 96.1203 217.275 96.2168 217.497 96.1914C217.72 96.1659 217.866 96.0727 217.936 95.9117C218.006 95.7507 218.023 95.5112 217.987 95.1933L217.81 93.6434ZM221.974 94.9909C222.284 94.9555 222.509 94.8452 222.648 94.6601C222.788 94.475 222.844 94.2553 222.815 94.001C222.785 93.7387 222.681 93.5332 222.503 93.3844C222.325 93.2437 222.086 93.1905 221.784 93.2251C221.466 93.2614 221.237 93.3722 221.097 93.5573C220.957 93.7424 220.902 93.9621 220.931 94.2164C220.961 94.4787 221.064 94.6802 221.242 94.821C221.42 94.9698 221.664 95.0264 221.974 94.9909Z" fill="#E5E5E5"/>
<path d="M221.495 103.942L221.27 100.144L221.222 100.147C220.766 100.174 220.436 100.354 220.232 100.687C220.027 101.019 219.94 101.437 219.97 101.94C219.988 102.26 220.037 102.537 220.115 102.773C220.194 103.017 220.283 103.236 220.382 103.43L219.285 103.784C219.169 103.575 219.065 103.308 218.974 102.985C218.874 102.662 218.811 102.277 218.785 101.83C218.759 101.399 218.791 100.988 218.88 100.598C218.978 100.216 219.138 99.8739 219.36 99.5722C219.583 99.2785 219.874 99.0369 220.231 98.8474C220.588 98.6579 221.023 98.548 221.534 98.5177C221.989 98.4908 222.404 98.5343 222.78 98.6482C223.163 98.7618 223.494 98.9345 223.772 99.1664C224.051 99.4064 224.272 99.6977 224.437 100.041C224.609 100.383 224.709 100.77 224.734 101.201C224.78 101.976 224.581 102.605 224.137 103.088C223.693 103.579 223.048 103.849 222.201 103.9L221.495 103.942ZM222.488 102.248C222.64 102.239 222.786 102.21 222.928 102.162C223.07 102.121 223.19 102.058 223.289 101.972C223.396 101.885 223.478 101.78 223.535 101.657C223.592 101.533 223.615 101.384 223.605 101.208C223.586 100.888 223.462 100.631 223.234 100.436C223.006 100.242 222.707 100.135 222.338 100.117L222.488 102.248Z" fill="#E5E5E5"/>
<path d="M30.2222 112.444C30.2222 -35.8594 232.333 -36.4367 232.333 112.444" stroke="#E5E5E5"/>
<line x1="49.1111" y1="112.944" x2="-2.67466e-05" y2="112.944" stroke="#E5E5E5"/>
<line x1="262.556" y1="112.944" x2="213.444" y2="112.944" stroke="#E5E5E5"/>
<line x1="-4.37114e-08" y1="176.167" x2="262.556" y2="176.167" stroke="#E5E5E5"/>
<line x1="-4.37114e-08" y1="180.889" x2="262.556" y2="180.889" stroke="#E5E5E5"/>
</svg>
