<svg width="26" height="25" viewBox="0 0 26 25" fill="none" xmlns="http://www.w3.org/2000/svg">
<path d="M18.4331 16.1625C19.9492 14.098 20.6283 11.5383 20.3344 8.99558C20.0406 6.45286 18.7955 4.11463 16.8482 2.44868C14.901 0.782724 12.3952 -0.0880845 9.83218 0.0104673C7.26918 0.109019 4.83797 1.16966 3.02496 2.9802C1.21194 4.79074 0.150829 7.21765 0.0539062 9.7754C-0.0430169 12.3331 0.831398 14.8331 2.50221 16.7751C4.17303 18.7171 6.51702 19.958 9.06525 20.2494C11.6135 20.5408 14.178 19.8613 16.2458 18.3469H16.2442C16.2912 18.4094 16.3413 18.4688 16.3976 18.5266L22.4258 24.5422C22.7194 24.8354 23.1177 25.0002 23.533 25.0004C23.9484 25.0005 24.3468 24.836 24.6406 24.543C24.9344 24.25 25.0995 23.8526 25.0997 23.4381C25.0998 23.0236 24.9349 22.626 24.6413 22.3328L18.6132 16.3172C18.5572 16.2607 18.497 16.2084 18.4331 16.161V16.1625ZM18.8371 10.1563C18.8371 11.2848 18.6143 12.4023 18.1816 13.445C17.7488 14.4876 17.1145 15.435 16.3148 16.233C15.5151 17.031 14.5658 17.664 13.521 18.0959C12.4762 18.5278 11.3563 18.75 10.2254 18.75C9.09455 18.75 7.97472 18.5278 6.92991 18.0959C5.88509 17.664 4.93575 17.031 4.13609 16.233C3.33642 15.435 2.70209 14.4876 2.26931 13.445C1.83654 12.4023 1.61379 11.2848 1.61379 10.1563C1.61379 7.87708 2.52109 5.69123 4.13609 4.07959C5.75108 2.46795 7.94149 1.56254 10.2254 1.56254C12.5094 1.56254 14.6998 2.46795 16.3148 4.07959C17.9298 5.69123 18.8371 7.87708 18.8371 10.1563Z" fill="#E5E5E5"/>
</svg>
