<svg width="28" height="22" viewBox="0 0 28 22" fill="none" xmlns="http://www.w3.org/2000/svg">
<path d="M13.0151 1.633C13.4052 0.789 14.8814 0.789 15.2728 1.633L17.7962 7.367C17.973 7.747 18.4228 8 18.9251 8H25.1264C26.2723 8 26.7721 9.17 25.8712 9.743L21.4583 13C21.2606 13.1247 21.1161 13.2975 21.0456 13.4937C20.9751 13.6898 20.9821 13.8993 21.0657 14.092L22.6773 19.695C23.0699 20.595 21.7996 21.368 20.839 20.814L14.8449 17.694C14.6396 17.5757 14.3948 17.5122 14.1439 17.5122C13.893 17.5122 13.6482 17.5757 13.4429 17.694L7.44884 20.814C6.48944 21.368 5.21796 20.594 5.6105 19.695L7.2221 14.092C7.3057 13.8993 7.31274 13.6898 7.24222 13.4937C7.1717 13.2975 7.02724 13.1247 6.82956 13L2.41657 9.743C1.51446 9.17 2.01672 8 3.16019 8H9.36154C9.60571 8.00067 9.84437 7.9405 10.0459 7.82747C10.2475 7.71444 10.4025 7.55387 10.4904 7.367L13.0138 1.633H13.0151Z" stroke="#E5E5E5" stroke-width="2" stroke-linecap="round" stroke-linejoin="round"/>
</svg>
 